<mxfile host="Electron" modified="2023-06-16T01:34:32.282Z" agent="Mozilla/5.0 (Macintosh; Intel Mac OS X 10_15_7) AppleWebKit/537.36 (KHTML, like Gecko) draw.io/21.4.0 Chrome/112.0.5615.204 Electron/24.5.1 Safari/537.36" etag="jYwf5qIXyYXwT1NrL-dR" version="21.4.0" type="device">
  <diagram name="Page-1" id="Olqtkp1LtoovO6gdocZX">
    <mxGraphModel dx="1306" dy="894" grid="1" gridSize="10" guides="1" tooltips="1" connect="1" arrows="1" fold="1" page="1" pageScale="1" pageWidth="850" pageHeight="1100" math="0" shadow="0">
      <root>
        <mxCell id="0" />
        <mxCell id="1" parent="0" />
        <mxCell id="NXBp93ZPdwRQVGGOuxaQ-1" value="a" style="rounded=1;whiteSpace=wrap;html=1;arcSize=5;fontFamily=SF Mono;" parent="1" vertex="1">
          <mxGeometry x="280" y="200" width="40" height="40" as="geometry" />
        </mxCell>
        <mxCell id="NXBp93ZPdwRQVGGOuxaQ-2" value="b" style="rounded=1;whiteSpace=wrap;html=1;arcSize=5;fontFamily=SF Mono;" parent="1" vertex="1">
          <mxGeometry x="360" y="200" width="40" height="40" as="geometry" />
        </mxCell>
        <mxCell id="NXBp93ZPdwRQVGGOuxaQ-3" value="c" style="rounded=1;whiteSpace=wrap;html=1;arcSize=5;fontFamily=SF Mono;" parent="1" vertex="1">
          <mxGeometry x="440" y="200" width="40" height="40" as="geometry" />
        </mxCell>
        <mxCell id="NXBp93ZPdwRQVGGOuxaQ-4" value="" style="endArrow=classic;html=1;rounded=0;exitX=1;exitY=0.5;exitDx=0;exitDy=0;entryX=0;entryY=0.5;entryDx=0;entryDy=0;" parent="1" source="NXBp93ZPdwRQVGGOuxaQ-1" target="NXBp93ZPdwRQVGGOuxaQ-2" edge="1">
          <mxGeometry width="50" height="50" relative="1" as="geometry">
            <mxPoint x="560" y="520" as="sourcePoint" />
            <mxPoint x="610" y="470" as="targetPoint" />
          </mxGeometry>
        </mxCell>
        <mxCell id="NXBp93ZPdwRQVGGOuxaQ-5" value="" style="endArrow=classic;html=1;rounded=0;exitX=1;exitY=0.5;exitDx=0;exitDy=0;" parent="1" source="NXBp93ZPdwRQVGGOuxaQ-2" target="NXBp93ZPdwRQVGGOuxaQ-3" edge="1">
          <mxGeometry width="50" height="50" relative="1" as="geometry">
            <mxPoint x="330" y="230" as="sourcePoint" />
            <mxPoint x="370" y="230" as="targetPoint" />
          </mxGeometry>
        </mxCell>
        <mxCell id="kLMDN9t0uzjOy7TxNxYU-3" value="&lt;font style=&quot;font-size: 14px;&quot; color=&quot;#ff0000&quot; face=&quot;SF Mono&quot;&gt;Ã—&lt;/font&gt;" style="endArrow=classic;html=1;rounded=0;entryX=0;entryY=0.5;entryDx=0;entryDy=0;" edge="1" parent="1" target="NXBp93ZPdwRQVGGOuxaQ-1">
          <mxGeometry width="50" height="50" relative="1" as="geometry">
            <mxPoint x="200" y="220" as="sourcePoint" />
            <mxPoint x="240" y="210" as="targetPoint" />
          </mxGeometry>
        </mxCell>
      </root>
    </mxGraphModel>
  </diagram>
</mxfile>
